<svg width="206" height="274" viewBox="0 0 206 274" fill="none" xmlns="http://www.w3.org/2000/svg">
<g clip-path="url(#clip0_65_189)">
<path d="M154.5 191.746C162 187.418 163.904 175.67 169.993 169.596C176.082 163.522 187.857 161.633 192.197 154.146C196.478 146.767 192.286 135.662 194.543 127.233C196.719 119.072 205.517 111.58 205.517 102.75C205.517 93.9199 196.253 86.417 194.069 78.2773C191.812 69.8486 196.007 58.7441 191.728 51.3643C187.39 43.8828 175.618 41.9884 169.529 35.9143C163.44 29.8403 161.541 18.0936 154.041 13.7642C146.644 9.49421 135.512 13.6765 127.063 11.4229C119.362 9.24215 111.852 0 103 0C94.1484 0 86.638 9.24215 78.4839 11.4202C70.0078 13.6679 58.9031 9.48832 51.4893 13.7535C43.9896 18.0829 42.0905 29.8296 36.0017 35.8983C29.9183 41.9723 18.1377 43.8668 13.7977 51.3482C9.51677 58.7066 13.7119 69.8379 11.4534 78.2398C9.26464 86.4277 0 93.9199 0 102.75C0 111.58 9.26464 119.083 11.448 127.223C13.7054 135.651 9.50926 146.756 13.7881 154.136C18.1323 161.617 29.9022 163.49 35.9856 169.591C42.0744 175.665 43.9735 187.412 51.4785 191.746C58.8763 196.016 70.0024 191.831 78.4517 194.085C86.638 196.242 94.1484 205.5 103 205.5C111.852 205.5 119.373 196.258 127.538 194.08C135.992 191.854 147.097 196.028 154.5 191.746ZM60.0833 102.75C60.0833 79.0586 79.2939 59.9375 103 59.9375C126.706 59.9375 145.917 79.0586 145.917 102.75C145.917 126.388 126.706 145.562 103 145.562C79.2939 145.562 60.0833 126.404 60.0833 102.75ZM0.922172 231.83C0.0640061 233.979 -0.195857 236.32 0.170074 238.604C0.536005 240.888 1.51412 243.032 3.00095 244.807C6.03516 248.42 10.7957 250.104 15.4039 249.168L39.6464 244.333L51.1427 266.954C53.3561 271.324 57.7229 274 62.6047 274C62.7892 274 62.9609 273.994 63.1454 273.986C68.2418 273.785 72.6139 270.731 74.5398 266.022L92.5541 222.097C63.7409 219.614 37.8353 207.048 18.4155 187.874L0.922172 231.83ZM187.546 187.893C168.153 207.068 142.242 219.633 113.407 222.117L131.422 266.042C133.35 270.75 137.72 273.802 142.816 274.005C143.02 273.518 142.752 274 143.395 274C148.274 274 152.638 271.339 154.849 266.968L166.345 244.342L190.588 249.177C195.198 250.113 199.959 248.429 202.99 244.816C204.477 243.041 205.456 240.898 205.822 238.613C206.187 236.329 205.928 233.988 205.069 231.839L187.546 187.893Z" fill="#E2D072"/>
</g>
<defs>
<clipPath id="clip0_65_189">
<rect width="206" height="274" fill="white"/>
</clipPath>
</defs>
</svg>
