<svg width="268" height="268" viewBox="0 0 268 268" fill="none" xmlns="http://www.w3.org/2000/svg">
<path d="M8.375 134C8.375 203.513 64.4875 259.625 134 259.625C203.513 259.625 259.625 203.513 259.625 134C259.625 64.4875 203.513 8.375 134 8.375C64.4875 8.375 8.375 64.4875 8.375 134Z" fill="#E2D072"/>
<path d="M199.744 157.45C199.744 193.462 248.737 193.462 248.737 157.45C248.737 131.069 224.45 105.525 224.45 105.525C224.45 105.525 199.744 131.069 199.744 157.45" fill="#65B1EF"/>
<path d="M161.219 167.5C172.782 167.5 182.156 158.126 182.156 146.562C182.156 134.999 172.782 125.625 161.219 125.625C149.655 125.625 140.281 134.999 140.281 146.562C140.281 158.126 149.655 167.5 161.219 167.5Z" fill="#664E27"/>
<path d="M64.9062 167.5C76.4697 167.5 85.8438 158.126 85.8438 146.562C85.8438 134.999 76.4697 125.625 64.9062 125.625C53.3428 125.625 43.9688 134.999 43.9688 146.562C43.9688 158.126 53.3428 167.5 64.9062 167.5Z" fill="#664E27"/>
<path d="M86.2625 83.3313C72.8625 94.6375 54.8563 99.6625 37.2688 96.3125C34.7563 95.8938 32.6625 104.688 35.5938 105.525C55.6938 109.294 76.6313 103.431 92.125 90.45C94.2188 88.3563 87.9375 81.6563 86.2625 83.3313ZM188.856 95.8938C171.269 98.825 153.263 94.2188 139.863 82.9125C138.188 81.2375 131.488 87.9375 134 90.0313C149.494 103.431 170.431 108.875 190.531 105.106C193.463 104.269 191.369 95.475 188.856 95.8938" fill="#917524"/>
<path d="M159.544 198.069C135.256 191.787 109.294 196.394 88.7749 210.631C83.7499 214.4 93.3812 227.381 98.4062 224.031C111.806 214.4 133.581 208.119 155.775 213.981C161.219 215.237 165.825 200.162 159.544 198.069" fill="#664E27"/>
</svg>
