<svg width="989" height="989" viewBox="0 0 989 989" fill="none" xmlns="http://www.w3.org/2000/svg">
<path d="M741.749 370.875C857.648 275.066 891.645 171.53 900.916 108.172C936.459 83.4469 958.093 61.8125 958.093 61.8125C958.093 61.8125 978.182 230.252 795.835 381.692C559.402 579.492 324.515 703.117 324.515 703.117L304.426 673.756C377.055 632.033 559.402 522.316 741.749 370.875Z" fill="#A9A9CF"/>
<path d="M302.88 673.757L284.336 645.941C661.392 330.697 669.119 185.438 669.119 185.438C766.473 186.983 848.375 143.714 900.916 106.627C891.644 168.439 857.647 271.975 741.748 369.33C559.402 522.316 377.055 632.033 302.88 673.757" fill="#CCCCFF"/>
<path d="M191.618 709.299C177.711 721.661 179.256 744.841 196.254 760.294C213.253 775.747 237.978 777.293 251.886 764.93C265.793 752.568 264.248 729.388 247.25 713.935C231.797 698.482 205.526 696.936 191.618 709.299Z" fill="#8235F5"/>
<path d="M199.346 710.844C186.983 721.661 188.529 741.75 203.982 754.113C217.89 768.02 239.524 769.566 251.887 757.203C264.249 746.386 262.704 726.297 247.251 713.934C233.343 701.572 211.708 698.481 199.346 710.844Z" fill="#9F72E2"/>
<path d="M157.622 738.659C143.715 751.022 145.26 774.202 162.258 789.655C179.257 805.108 203.982 806.653 217.89 794.291C231.797 781.928 230.252 758.748 213.254 743.295C196.255 727.842 171.53 726.297 157.622 738.659Z" fill="#8235F5"/>
<path d="M165.35 738.66C152.987 749.477 154.532 769.566 169.986 781.928C183.893 795.836 205.528 797.382 217.89 785.019C230.253 774.202 228.707 754.113 213.254 741.75C199.346 729.388 177.712 727.843 165.35 738.66Z" fill="#9F72E2"/>
<path d="M123.624 768.02C108.171 780.383 111.261 803.562 128.26 819.016C145.258 834.469 169.983 836.014 183.891 823.651C197.799 811.289 196.253 788.109 179.255 772.656C162.257 757.203 137.532 754.112 123.624 768.02Z" fill="#8235F5"/>
<path d="M129.807 768.02C117.444 778.837 118.99 798.926 134.443 811.289C148.351 825.197 169.985 826.742 182.347 814.379C194.71 803.562 193.165 783.473 177.712 771.111C163.804 758.748 142.169 757.203 129.807 768.02Z" fill="#9F72E2"/>
<path d="M88.0826 795.836C74.1748 809.744 77.2654 831.378 92.7186 846.831C109.717 862.285 134.442 863.83 148.35 851.467C162.258 839.105 160.712 815.925 143.714 800.472C128.261 785.019 103.536 783.474 88.0826 795.836" fill="#8235F5"/>
<path d="M95.8105 797.381C83.448 808.199 84.9933 828.288 100.446 840.65C114.354 854.558 135.989 856.103 148.351 843.741C160.714 832.924 159.168 812.835 143.715 800.472C129.807 786.564 108.173 785.019 95.8105 797.381" fill="#9F72E2"/>
<path d="M46.3577 831.378C94.2624 789.655 72.628 819.016 103.534 849.922C193.162 942.641 344.603 805.108 242.612 724.752C183.891 678.392 225.614 618.125 254.975 591.855C273.519 576.402 259.611 604.217 313.697 667.575C367.783 732.478 343.058 834.469 271.973 894.736C197.798 956.549 108.17 917.916 74.1733 876.192C49.4483 848.377 7.72489 862.285 46.3577 831.378" fill="#8235F5"/>
<path d="M169.986 897.826C194.711 897.826 228.708 890.1 256.523 863.829C288.975 831.378 301.337 791.2 292.066 751.021C313.7 795.836 307.519 843.74 271.977 877.737C247.252 902.462 214.8 907.098 191.62 905.553C171.531 905.553 151.442 900.917 132.898 893.19C145.261 897.826 157.623 899.371 169.986 897.826" fill="#9F72E2"/>
<path d="M247.252 370.875C131.353 273.52 97.3563 169.984 88.0844 108.172C52.5422 83.4469 30.9079 61.8125 30.9079 61.8125C30.9079 61.8125 12.3641 230.252 193.166 381.692C429.598 579.492 664.486 703.117 664.486 703.117L684.575 673.756C611.945 632.033 429.598 522.316 247.252 370.875Z" fill="#A9A9CF"/>
<path d="M686.118 673.756L704.662 645.941C327.605 330.697 319.879 185.438 319.879 185.438C222.524 186.983 140.623 143.714 88.082 108.172C97.3539 169.984 131.351 273.52 247.249 370.875C429.596 522.316 611.943 632.033 686.118 673.756Z" fill="#CCCCFF"/>
<path d="M797.382 709.299C811.29 721.661 809.744 744.841 792.746 760.294C775.747 775.747 751.022 777.293 737.115 764.93C723.207 752.568 724.752 729.388 741.751 713.935C757.204 698.482 783.474 696.936 797.382 709.299Z" fill="#8235F5"/>
<path d="M789.656 710.844C802.018 721.661 800.473 741.75 785.02 754.113C771.112 768.02 749.478 769.566 737.115 757.203C724.753 746.386 726.298 726.297 741.751 713.934C755.659 701.572 777.293 698.481 789.656 710.844Z" fill="#9F72E2"/>
<path d="M831.378 738.659C845.286 751.022 843.74 774.202 826.742 789.655C809.743 805.108 785.018 806.653 771.111 794.291C757.203 781.928 758.748 758.748 775.747 743.295C792.745 727.842 817.47 726.297 831.378 738.659Z" fill="#8235F5"/>
<path d="M823.652 738.66C836.014 749.477 834.469 769.566 819.016 781.928C805.108 795.836 783.474 797.382 771.111 785.019C758.749 774.202 760.294 754.113 775.747 741.75C789.655 729.388 811.289 727.843 823.652 738.66Z" fill="#9F72E2"/>
<path d="M865.374 768.02C879.282 780.383 877.736 803.562 860.738 819.016C843.74 834.469 819.015 836.014 805.107 823.651C791.199 811.289 792.744 788.109 809.743 772.656C826.741 757.203 851.466 754.112 865.374 768.02Z" fill="#8235F5"/>
<path d="M859.195 768.02C871.557 778.837 870.012 798.926 854.559 811.289C840.651 825.197 819.017 826.742 806.654 814.379C794.292 803.562 795.837 783.473 811.29 771.111C825.198 758.748 846.832 757.203 859.195 768.02Z" fill="#9F72E2"/>
<path d="M900.917 795.836C914.825 808.199 913.279 831.378 896.281 846.831C879.283 862.285 854.558 863.83 840.65 851.467C826.742 839.105 828.287 815.925 845.286 800.472C860.739 785.019 885.464 783.474 900.917 795.836Z" fill="#8235F5"/>
<path d="M893.191 797.381C905.553 808.199 904.008 828.288 888.555 840.65C874.647 854.558 853.013 856.103 840.65 843.741C828.288 832.924 829.833 812.835 845.286 800.472C859.194 786.564 880.828 785.019 893.191 797.381Z" fill="#9F72E2"/>
<path d="M942.642 831.378C893.192 791.2 916.371 819.016 885.465 849.922C795.837 942.641 644.396 805.108 746.387 724.752C805.109 678.392 763.385 618.125 734.024 591.855C715.481 576.402 729.388 604.217 675.302 667.575C621.217 732.478 645.942 834.469 717.026 894.736C791.201 956.549 880.829 917.916 914.826 876.192C939.551 848.377 981.274 862.285 942.642 831.378" fill="#8235F5"/>
<path d="M819.015 897.826C794.29 897.826 760.293 890.1 732.477 863.829C700.026 831.378 687.663 791.2 696.935 751.021C675.301 795.836 681.482 843.74 717.024 877.737C741.749 902.462 774.201 907.098 797.38 905.553C817.469 905.553 837.558 900.917 856.102 893.19C843.74 897.826 831.377 899.371 819.015 897.826" fill="#9F72E2"/>
</svg>
