<svg width="256" height="64" viewBox="0 0 256 64" fill="none" xmlns="http://www.w3.org/2000/svg">
<path d="M22.9137 45.9733C20.0749 45.9733 17.7143 45.4487 15.832 44.3996C13.9806 43.3504 12.5766 41.8847 11.62 40.0024C10.6634 38.1201 10.1389 35.9293 10.0463 33.4299C10.0154 32.1647 10 30.807 10 29.3567C10 27.9064 10.0154 26.5179 10.0463 25.191C10.1389 22.6916 10.6634 20.5007 11.62 18.6184C12.5766 16.7361 13.9806 15.2704 15.832 14.2213C17.7143 13.1721 20.0749 12.6476 22.9137 12.6476C25.0429 12.6476 26.9097 12.9407 28.5143 13.527C30.1189 14.1133 31.4457 14.9001 32.4949 15.8876C33.5749 16.875 34.3926 17.9859 34.948 19.2201C35.5034 20.4236 35.812 21.6733 35.8737 22.9693C35.9046 23.247 35.812 23.4784 35.596 23.6636C35.4109 23.8487 35.1794 23.9413 34.9017 23.9413H32.356C32.0783 23.9413 31.8314 23.8641 31.6154 23.7099C31.4303 23.5556 31.2914 23.2779 31.1989 22.8767C30.6743 20.4699 29.6869 18.819 28.2366 17.9241C26.8171 17.0293 25.0429 16.5819 22.9137 16.5819C20.4143 16.5819 18.4394 17.2916 16.9891 18.711C15.5389 20.0996 14.7674 22.3367 14.6749 25.4224C14.5823 27.9527 14.5823 30.5447 14.6749 33.1984C14.7674 36.2841 15.5389 38.5367 16.9891 39.9561C18.4394 41.3447 20.4143 42.039 22.9137 42.039C25.0429 42.039 26.8171 41.5916 28.2366 40.6967C29.6869 39.8019 30.6743 38.151 31.1989 35.7441C31.2914 35.343 31.4303 35.0653 31.6154 34.911C31.8314 34.7567 32.0783 34.6796 32.356 34.6796H34.9017C35.1794 34.6796 35.4109 34.7721 35.596 34.9573C35.812 35.1116 35.9046 35.3276 35.8737 35.6053C35.812 36.9013 35.5034 38.1664 34.948 39.4007C34.3926 40.635 33.5749 41.7459 32.4949 42.7333C31.4457 43.7207 30.1189 44.5076 28.5143 45.0939C26.9097 45.6801 25.0429 45.9733 22.9137 45.9733Z" fill="#CCCCFF"/>
<path d="M51.3339 45.9733C48.9887 45.9733 47.0293 45.5259 45.4556 44.631C43.8819 43.7361 42.6784 42.5019 41.8453 40.9281C41.0122 39.3236 40.5493 37.503 40.4567 35.4664C40.4259 34.9419 40.4104 34.2784 40.4104 33.4761C40.4104 32.643 40.4259 31.9796 40.4567 31.4859C40.5493 29.4184 41.0122 27.5979 41.8453 26.0241C42.7093 24.4504 43.9282 23.2161 45.5019 22.3213C47.0756 21.4264 49.0196 20.979 51.3339 20.979C53.6481 20.979 55.5921 21.4264 57.1659 22.3213C58.7396 23.2161 59.943 24.4504 60.7761 26.0241C61.6402 27.5979 62.1184 29.4184 62.211 31.4859C62.2419 31.9796 62.2573 32.643 62.2573 33.4761C62.2573 34.2784 62.2419 34.9419 62.211 35.4664C62.1184 37.503 61.6556 39.3236 60.8224 40.9281C59.9893 42.5019 58.7859 43.7361 57.2122 44.631C55.6384 45.5259 53.679 45.9733 51.3339 45.9733ZM51.3339 42.4093C53.247 42.4093 54.7744 41.8076 55.9161 40.6041C57.0579 39.3699 57.675 37.5801 57.7676 35.235C57.7984 34.7721 57.8139 34.1859 57.8139 33.4761C57.8139 32.7664 57.7984 32.1801 57.7676 31.7173C57.675 29.3721 57.0579 27.5979 55.9161 26.3944C54.7744 25.1601 53.247 24.543 51.3339 24.543C49.4207 24.543 47.8779 25.1601 46.7053 26.3944C45.5636 27.5979 44.9619 29.3721 44.9002 31.7173C44.8693 32.1801 44.8539 32.7664 44.8539 33.4761C44.8539 34.1859 44.8693 34.7721 44.9002 35.235C44.9619 37.5801 45.5636 39.3699 46.7053 40.6041C47.8779 41.8076 49.4207 42.4093 51.3339 42.4093Z" fill="#CCCCFF"/>
<path d="M76.8474 45.9733C75.1503 45.9733 73.6846 45.6801 72.4503 45.0939C71.216 44.4767 70.1977 43.659 69.3954 42.6407C68.624 41.5916 68.0377 40.4036 67.6366 39.0767C67.2663 37.7499 67.0503 36.3459 66.9886 34.8647C66.9577 34.371 66.9423 33.9081 66.9423 33.4761C66.9423 33.0441 66.9577 32.5813 66.9886 32.0876C67.0503 30.6373 67.2663 29.2487 67.6366 27.9219C68.0377 26.595 68.624 25.407 69.3954 24.3579C70.1977 23.3087 71.216 22.491 72.4503 21.9047C73.6846 21.2876 75.1503 20.979 76.8474 20.979C78.668 20.979 80.18 21.303 81.3834 21.951C82.5868 22.599 83.5743 23.4013 84.3457 24.3579V13.7121C84.3457 13.4036 84.4383 13.1567 84.6234 12.9716C84.8394 12.7556 85.1017 12.6476 85.4103 12.6476H87.632C87.9406 12.6476 88.1874 12.7556 88.3726 12.9716C88.5886 13.1567 88.6966 13.4036 88.6966 13.7121V44.4459C88.6966 44.7544 88.5886 45.0167 88.3726 45.2327C88.1874 45.4179 87.9406 45.5104 87.632 45.5104H85.5491C85.2097 45.5104 84.9474 45.4179 84.7623 45.2327C84.5771 45.0167 84.4846 44.7544 84.4846 44.4459V42.5019C83.7131 43.4893 82.7103 44.3224 81.476 45.0013C80.2417 45.6493 78.6988 45.9733 76.8474 45.9733ZM77.8194 42.2241C79.3623 42.2241 80.5966 41.8693 81.5223 41.1596C82.448 40.4499 83.1423 39.555 83.6051 38.475C84.068 37.3641 84.3148 36.2379 84.3457 35.0961C84.3766 34.6024 84.392 34.0161 84.392 33.3373C84.392 32.6276 84.3766 32.0259 84.3457 31.5321C84.3148 30.4521 84.0526 29.3876 83.5588 28.3384C83.096 27.2893 82.3863 26.4253 81.4297 25.7464C80.504 25.0676 79.3006 24.7281 77.8194 24.7281C76.2457 24.7281 74.996 25.083 74.0703 25.7927C73.1446 26.4716 72.4811 27.3819 72.08 28.5236C71.6788 29.6344 71.4474 30.8379 71.3857 32.1339C71.3548 33.0287 71.3548 33.9236 71.3857 34.8184C71.4474 36.1144 71.6788 37.3333 72.08 38.475C72.4811 39.5859 73.1446 40.4961 74.0703 41.2059C74.996 41.8847 76.2457 42.2241 77.8194 42.2241Z" fill="#CCCCFF"/>
<path d="M105.208 45.9733C101.999 45.9733 99.453 45.0013 97.5708 43.0573C95.6885 41.0824 94.6548 38.3979 94.4696 35.0036C94.4388 34.6024 94.4233 34.0933 94.4233 33.4761C94.4233 32.8281 94.4388 32.3036 94.4696 31.9024C94.593 29.7116 95.1022 27.7984 95.9971 26.163C96.8919 24.4967 98.1108 23.2161 99.6536 22.3213C101.227 21.4264 103.063 20.979 105.162 20.979C107.507 20.979 109.466 21.4727 111.04 22.4601C112.644 23.4476 113.863 24.8516 114.696 26.6721C115.53 28.4927 115.946 30.6219 115.946 33.0596V33.8464C115.946 34.1859 115.838 34.4481 115.622 34.6333C115.437 34.8184 115.19 34.911 114.882 34.911H98.8668C98.8668 34.9419 98.8668 35.0036 98.8668 35.0961C98.8668 35.1887 98.8668 35.2659 98.8668 35.3276C98.9285 36.5927 99.2062 37.7807 99.6999 38.8916C100.194 39.9716 100.903 40.851 101.829 41.5299C102.786 42.2087 103.896 42.5481 105.162 42.5481C106.272 42.5481 107.198 42.3784 107.939 42.039C108.679 41.6996 109.281 41.3293 109.744 40.9281C110.207 40.4961 110.515 40.1567 110.67 39.9099C110.947 39.5396 111.163 39.3236 111.318 39.2619C111.472 39.1693 111.719 39.123 112.058 39.123H114.326C114.604 39.123 114.835 39.2156 115.02 39.4007C115.236 39.555 115.329 39.7864 115.298 40.095C115.267 40.5579 115.02 41.1287 114.558 41.8076C114.095 42.4556 113.431 43.1036 112.567 43.7516C111.734 44.3996 110.685 44.9396 109.42 45.3716C108.186 45.7727 106.782 45.9733 105.208 45.9733ZM98.8668 31.7173H111.549V31.5784C111.549 30.1899 111.287 28.9556 110.762 27.8756C110.268 26.7956 109.543 25.947 108.587 25.3299C107.63 24.6819 106.488 24.3579 105.162 24.3579C103.835 24.3579 102.693 24.6819 101.736 25.3299C100.811 25.947 100.101 26.7956 99.6073 27.8756C99.1136 28.9556 98.8668 30.1899 98.8668 31.5784V31.7173Z" fill="#CCCCFF"/>
<path d="M163.931 45.9733C162.388 45.9733 160.984 45.6647 159.719 45.0476C158.454 44.4304 157.435 43.5973 156.664 42.5481C155.893 41.499 155.507 40.311 155.507 38.9841C155.507 36.855 156.371 35.1579 158.099 33.8927C159.827 32.6276 162.079 31.7944 164.857 31.3933L171.753 30.4213V29.079C171.753 27.5979 171.321 26.4407 170.457 25.6076C169.624 24.7744 168.251 24.3579 166.338 24.3579C164.98 24.3579 163.869 24.6356 163.005 25.191C162.141 25.7464 161.539 26.4561 161.2 27.3201C161.015 27.783 160.691 28.0144 160.228 28.0144H158.145C157.806 28.0144 157.543 27.9219 157.358 27.7367C157.204 27.5207 157.127 27.2739 157.127 26.9961C157.127 26.5333 157.297 25.9624 157.636 25.2836C158.006 24.6047 158.562 23.9413 159.302 23.2933C160.043 22.6453 160.984 22.1053 162.126 21.6733C163.298 21.2104 164.718 20.979 166.384 20.979C168.235 20.979 169.794 21.2259 171.059 21.7196C172.324 22.1824 173.311 22.815 174.021 23.6173C174.762 24.4196 175.286 25.3299 175.595 26.3481C175.934 27.3664 176.104 28.4001 176.104 29.4493V44.4459C176.104 44.7544 175.996 45.0167 175.78 45.2327C175.595 45.4179 175.348 45.5104 175.039 45.5104H172.91C172.571 45.5104 172.309 45.4179 172.123 45.2327C171.938 45.0167 171.846 44.7544 171.846 44.4459V42.4556C171.445 43.011 170.905 43.5664 170.226 44.1219C169.547 44.6464 168.698 45.0939 167.68 45.4641C166.662 45.8036 165.412 45.9733 163.931 45.9733ZM164.903 42.5019C166.168 42.5019 167.325 42.2396 168.374 41.715C169.423 41.1596 170.241 40.311 170.827 39.1693C171.445 38.0276 171.753 36.5927 171.753 34.8647V33.5687L166.384 34.3556C164.193 34.6641 162.542 35.1887 161.431 35.9293C160.321 36.639 159.765 37.5493 159.765 38.6601C159.765 39.5241 160.012 40.2493 160.506 40.8356C161.03 41.391 161.678 41.8076 162.45 42.0853C163.252 42.363 164.07 42.5019 164.903 42.5019Z" fill="#CCCCFF"/>
<path d="M183.822 45.5104C183.514 45.5104 183.252 45.4179 183.036 45.2327C182.851 45.0167 182.758 44.7544 182.758 44.4459V22.5064C182.758 22.1979 182.851 21.951 183.036 21.7659C183.252 21.5499 183.514 21.4419 183.822 21.4419H185.905C186.214 21.4419 186.461 21.5499 186.646 21.7659C186.862 21.951 186.97 22.1979 186.97 22.5064V24.1264C187.68 23.1699 188.574 22.4139 189.654 21.8584C190.734 21.2721 192.03 20.979 193.542 20.979C197.029 20.9481 199.498 22.3676 200.948 25.2373C201.658 23.9413 202.692 22.9076 204.049 22.1361C205.407 21.3647 206.95 20.979 208.678 20.979C210.283 20.979 211.733 21.3493 213.029 22.0899C214.356 22.8304 215.389 23.9567 216.13 25.4687C216.901 26.9499 217.287 28.8167 217.287 31.0693V44.4459C217.287 44.7544 217.179 45.0167 216.963 45.2327C216.778 45.4179 216.531 45.5104 216.223 45.5104H214.047C213.739 45.5104 213.476 45.4179 213.26 45.2327C213.075 45.0167 212.982 44.7544 212.982 44.4459V31.4859C212.982 29.7579 212.736 28.4001 212.242 27.4127C211.748 26.4253 211.085 25.731 210.252 25.3299C209.419 24.9287 208.508 24.7281 207.521 24.7281C206.718 24.7281 205.901 24.9287 205.068 25.3299C204.234 25.731 203.54 26.4253 202.985 27.4127C202.46 28.4001 202.198 29.7579 202.198 31.4859V44.4459C202.198 44.7544 202.09 45.0167 201.874 45.2327C201.689 45.4179 201.442 45.5104 201.133 45.5104H198.958C198.649 45.5104 198.387 45.4179 198.171 45.2327C197.986 45.0167 197.893 44.7544 197.893 44.4459V31.4859C197.893 29.7579 197.631 28.4001 197.107 27.4127C196.582 26.4253 195.903 25.731 195.07 25.3299C194.237 24.9287 193.357 24.7281 192.432 24.7281C191.629 24.7281 190.812 24.9287 189.979 25.3299C189.145 25.731 188.451 26.4253 187.896 27.4127C187.371 28.4001 187.109 29.7424 187.109 31.4396V44.4459C187.109 44.7544 187.001 45.0167 186.785 45.2327C186.6 45.4179 186.353 45.5104 186.044 45.5104H183.822Z" fill="#CCCCFF"/>
<path d="M225.002 54.3047C224.693 54.3047 224.431 54.1967 224.215 53.9807C224.03 53.7956 223.937 53.5487 223.937 53.2401V22.5064C223.937 22.1979 224.03 21.951 224.215 21.7659C224.431 21.5499 224.693 21.4419 225.002 21.4419H227.131C227.439 21.4419 227.686 21.5499 227.871 21.7659C228.087 21.951 228.195 22.1979 228.195 22.5064V24.543C228.936 23.5247 229.923 22.6761 231.158 21.9973C232.392 21.3184 233.935 20.979 235.786 20.979C237.514 20.979 238.98 21.2721 240.183 21.8584C241.418 22.4447 242.42 23.247 243.192 24.2653C243.994 25.2836 244.596 26.4407 244.997 27.7367C245.398 29.0327 245.63 30.4213 245.691 31.9024C245.722 32.3961 245.738 32.9207 245.738 33.4761C245.738 34.0316 245.722 34.5561 245.691 35.0499C245.63 36.5001 245.398 37.8887 244.997 39.2156C244.596 40.5116 243.994 41.6687 243.192 42.687C242.42 43.6744 241.418 44.4767 240.183 45.0939C238.98 45.6801 237.514 45.9733 235.786 45.9733C233.996 45.9733 232.484 45.6493 231.25 45.0013C230.047 44.3224 229.059 43.4893 228.288 42.5019V53.2401C228.288 53.5487 228.195 53.7956 228.01 53.9807C227.825 54.1967 227.578 54.3047 227.27 54.3047H225.002ZM234.814 42.2241C236.419 42.2241 237.668 41.8847 238.563 41.2059C239.489 40.4961 240.152 39.5859 240.554 38.475C240.955 37.3333 241.186 36.1144 241.248 34.8184C241.279 33.9236 241.279 33.0287 241.248 32.1339C241.186 30.8379 240.955 29.6344 240.554 28.5236C240.152 27.3819 239.489 26.4716 238.563 25.7927C237.668 25.083 236.419 24.7281 234.814 24.7281C233.302 24.7281 232.068 25.083 231.111 25.7927C230.186 26.5024 229.491 27.4127 229.028 28.5236C228.596 29.6036 228.35 30.7144 228.288 31.8561C228.257 32.3499 228.242 32.9361 228.242 33.615C228.242 34.2939 228.257 34.8956 228.288 35.4201C228.319 36.5001 228.566 37.5647 229.028 38.6139C229.522 39.663 230.247 40.527 231.204 41.2059C232.16 41.8847 233.364 42.2241 234.814 42.2241Z" fill="#CCCCFF"/>
<path d="M152.945 52.2984C151.125 52.2984 149.613 52.0052 148.409 51.419C147.237 50.8327 146.311 49.9532 145.632 48.7807C144.953 47.639 144.475 46.2504 144.197 44.615C143.92 42.9487 143.781 41.0355 143.781 38.8755C143.781 37.271 143.565 36.0367 143.133 35.1727C142.701 34.2778 138.196 33.5527 137.332 32.9972L137.008 32.8584C136.236 32.3647 135.85 31.7784 135.85 31.0995V30.1738C135.85 29.495 136.236 28.9087 137.008 28.415L137.378 28.2298C138.242 27.6435 142.732 26.9184 143.133 26.0544C143.565 25.1904 143.781 23.9715 143.781 22.3978C143.781 20.2378 143.92 18.3401 144.197 16.7047C144.475 15.0384 144.953 13.6344 145.632 12.4927C146.311 11.351 147.237 10.487 148.409 9.90067C149.613 9.31438 151.125 9.02124 152.945 9.02124H153.177C153.485 9.02124 153.732 9.11381 153.917 9.29895C154.102 9.4841 154.195 9.73095 154.195 10.0395V11.7521C154.195 12.0607 154.102 12.3075 153.917 12.4927C153.732 12.6778 153.501 12.7704 153.223 12.7704H152.992C151.51 12.8012 150.4 13.187 149.659 13.9275C148.949 14.6372 148.471 15.7481 148.224 17.2601C148.008 18.7721 147.9 20.7778 147.9 23.2772C147.9 25.1287 147.607 26.6561 147.021 27.8595C146.434 29.063 145.57 29.9887 144.429 30.6367C145.2 31.0378 145.833 31.5932 146.326 32.303C146.851 32.9818 147.237 33.7995 147.484 34.7561C147.761 35.7127 147.9 36.7927 147.9 37.9961C147.9 40.4338 148.008 42.4395 148.224 44.0132C148.471 45.5561 148.949 46.6824 149.659 47.3921C150.4 48.1018 151.51 48.4875 152.992 48.5492H153.223C153.501 48.5492 153.732 48.6418 153.917 48.827C154.102 49.0121 154.195 49.259 154.195 49.5675V51.2801C154.195 51.5887 154.102 51.8355 153.917 52.0207C153.732 52.2058 153.485 52.2984 153.177 52.2984H152.945Z" fill="#8235F5"/>
<path d="M131.716 46.4819C131.377 46.4819 131.114 46.3893 130.929 46.2041C130.744 45.9881 130.651 45.7259 130.651 45.4173V15.1464C130.651 14.8379 130.744 14.591 130.929 14.4059C131.114 14.1899 131.377 14.0819 131.716 14.0819H134.169C134.509 14.0819 134.771 14.1899 134.956 14.4059C135.141 14.591 135.234 14.8379 135.234 15.1464V45.4173C135.234 45.7259 135.141 45.9881 134.956 46.2041C134.771 46.3893 134.509 46.4819 134.169 46.4819H131.716Z" fill="#CCCCFF"/>
</svg>
